<svg xmlns="http://www.w3.org/2000/svg" viewBox="5 -4.6 89.7 100">
<!-- SVG created with Arrow, by QuiverAI (https://quiver.ai) -->
  <path d="m42.3 40c0-2.2-1.3-5-3.3-6l-27.6-13.3c-2.7-1.3-5.4 0.3-5.4 3v50.3c0 2.2 1.3 4.3 3 5.2l31.6 15.7c1.2 0.9 1.7 1.1 1.7-1.9v-8.9l-18.8-9.1v-5.1l18.8 9.3v-12.6l-18.6-9.3v-1.8l18.6 9.2v-15s-13.2-6.5-18.6-9.1v-1.6l18.6 9.3v-8.4 0.1z" fill="#0F253E"/>
  <path d="m12.5 15.6 33.8-18.8c1.3-0.7 3.7-0.7 5.2 0.1l22.6 11c0.6 0.3 0.7 0.5 0.7 0.9 0 0.7-0.2 0.8-1.1 1.3l-28.4 18.2c-1.7 1.1-3.8 1.1-5.6 0.3l-26.9-12.3c-0.6-0.3-0.7-0.4-0.7-0.8s0.2-0.5 0.4-0.6v0.7z" fill="#0B6DD7"/>
  <path d="m45.6 37.4c0-2.1 0.9-4.4 2.8-5.6l28.5-18.1c1.3-0.9 2.4-0.9 3.6-0.3l6.6 3.2c0.2 0.2 0.4 0.4 0.4 0.7s0 0.7-0.3 0.9l-19.3 13.6c-0.9 0.6-2 1.3-3 2.4l-19.3 20.7v-17.5z" fill="#0B6DD7"/>
  <path d="m45.6 56.4 23.6 28.5-19.7 9.4c-1.9 1-3.9 0.1-3.9-2.7v-35.2z" fill="#0B6DD7"/>
  <path d="m58.1 55.5c-0.1-0.1-0.2-0.2-0.2-0.3s0-0.1 0.1-0.4l13.4-22.3c0.7-1.3 2-2.3 2.8-2.8l14.8-10.3c1.4-1 2.5 0.4 2.5 1.6v7c0 0.6-0.2 0.8-0.8 1.3-2.6 2.1-6.4 5-8.7 6.6-1.7 1.2-3 2.7-3.1 5.5v38l-20.8-23.8v-0.1z" fill="#0B6DD7"/>
  <path d="m84.4 38.5c-1.1 0.7-2.2 2.5-2.2 4.5v32.1c0.2 1.9 1.5 2.4 2.8 1.7l5.3-2.4c1.6-0.7 3.3-2.6 3.4-4.8v-34.7c0-1.9-1.1-2.4-2.1-1.5l-7.2 5.5" fill="#3ABCF7"/>
  <path d="m23.3 33-4.6-2.4c-0.3-0.1-0.6-0.1-0.9 0.1l-4.2 2.3c-0.3 0.2-0.5 0.4-0.5 0.8v5.5c0 0.4 0.2 0.6 0.6 0.8l4.1 2.3c0.3 0.2 0.6 0.2 1 0l4.9-2.7v-5.7c0-0.4-0.1-0.7-0.6-1h0.2z" fill="#056ACE"/>
  <path d="m23.3 50.5-4.5-2.5c-0.3-0.1-0.6-0.2-1 0l-4.2 2.3c-0.3 0.2-0.5 0.5-0.5 0.8v5.3c0 0.4 0.2 0.7 0.5 0.9l4.1 2.3c0.3 0.2 0.7 0.2 1 0l4.9-2.6 0.1-5.8c0-0.3-0.2-0.5-0.4-0.7z" fill="#2AAAF2"/>
  <path d="m23.3 67-4.5-2.4c-0.3-0.2-0.7-0.2-1 0l-4.1 2.2c-0.3 0.2-0.6 0.5-0.6 0.9v5.6c0 0.3 0.2 0.6 0.5 0.8l4.1 2.3c0.3 0.2 0.8 0.2 1 0l4.9-2.6v-5.8c0.1-0.4 0-0.8-0.4-1.1l0.1 0.1z" fill="#30CDEC"/>
</svg>